<?xml version="1.0" encoding="utf-8"?>
<!-- Generator: Adobe Illustrator 22.0.0, SVG Export Plug-In . SVG Version: 6.00 Build 0)  -->
<svg version="1.1" id="Layer_1" xmlns="http://www.w3.org/2000/svg" xmlns:xlink="http://www.w3.org/1999/xlink" x="0px" y="0px"
	 viewBox="0 0 200 200" style="enable-background:new 0 0 200 200;" xml:space="preserve">
<style type="text/css">
	.st0{fill:#FFFFFF;}
	.st1{fill:#EE1E3D;}
	.st2{opacity:0.5;}
	.st3{opacity:0.3;}
</style>
<g>
	<g>
		<path class="st0" d="M64.6,104.9H48.5l-2.9,7.4H31l18.6-42.5h14.1l18.6,42.5H67.5L64.6,104.9z M60.7,94.5l-4.1-10.7l-4.1,10.7
			H60.7z"/>
		<path class="st0" d="M102.9,101.6H99v10.7H84.6V69.7h20.5c3.9,0,7.4,0.6,10.3,1.9c2.9,1.3,5.2,3.2,6.7,5.6
			c1.6,2.4,2.4,5.3,2.4,8.5c0,3-0.7,5.7-2.1,8c-1.4,2.3-3.4,4.1-6,5.4l8.9,13.1h-15.3L102.9,101.6z M108.6,82.1
			c-1-0.9-2.4-1.3-4.4-1.3H99v10h5.2c1.9,0,3.4-0.4,4.4-1.3c1-0.9,1.5-2.1,1.5-3.7C110,84.2,109.5,83,108.6,82.1z"/>
		<path class="st0" d="M139.8,110.4c-3.6-1.9-6.4-4.5-8.5-7.9c-2-3.4-3.1-7.2-3.1-11.5c0-4.3,1-8.1,3.1-11.5c2-3.4,4.9-6,8.5-7.9
			c3.6-1.9,7.7-2.8,12.2-2.8c4.1,0,7.8,0.7,11.1,2.2c3.2,1.5,5.9,3.6,8,6.3l-9.1,8.1c-2.6-3.3-5.7-5-9.3-5c-3,0-5.4,1-7.2,2.9
			c-1.8,1.9-2.7,4.5-2.7,7.7c0,3.2,0.9,5.8,2.7,7.7c1.8,1.9,4.2,2.9,7.2,2.9c3.6,0,6.7-1.7,9.3-5l9.1,8.1c-2.1,2.8-4.8,4.9-8,6.3
			c-3.2,1.5-6.9,2.2-11.1,2.2C147.4,113.3,143.4,112.3,139.8,110.4z"/>
	</g>
	<g>
		<path class="st0" d="M58.7,126h-4.2l-0.8,2H52l3.8-8.4h1.5l3.8,8.4h-1.6L58.7,126z M58.2,124.8l-1.6-3.7l-1.6,3.7H58.2z"/>
		<path class="st0" d="M70.5,127.5c-0.7-0.4-1.2-0.9-1.6-1.5c-0.4-0.7-0.6-1.4-0.6-2.2s0.2-1.6,0.6-2.2c0.4-0.7,0.9-1.2,1.6-1.5
			c0.7-0.4,1.5-0.6,2.3-0.6c0.7,0,1.3,0.1,1.9,0.4c0.6,0.2,1.1,0.6,1.4,1l-1,1c-0.6-0.7-1.4-1-2.3-1c-0.6,0-1.1,0.1-1.6,0.4
			c-0.5,0.3-0.8,0.6-1.1,1.1c-0.3,0.5-0.4,1-0.4,1.5s0.1,1.1,0.4,1.5c0.3,0.5,0.6,0.8,1.1,1.1c0.5,0.3,1,0.4,1.6,0.4
			c0.9,0,1.6-0.3,2.3-1l1,1c-0.4,0.5-0.9,0.8-1.5,1c-0.6,0.2-1.2,0.4-1.9,0.4C71.9,128.1,71.2,127.9,70.5,127.5z"/>
		<path class="st0" d="M89.7,126h-4.2l-0.8,2H83l3.8-8.4h1.5l3.8,8.4h-1.6L89.7,126z M89.2,124.8l-1.6-3.7l-1.6,3.7H89.2z"/>
		<path class="st0" d="M100,119.5h3.7c0.9,0,1.7,0.2,2.4,0.5c0.7,0.3,1.2,0.8,1.6,1.5s0.6,1.4,0.6,2.2s-0.2,1.6-0.6,2.2
			s-0.9,1.1-1.6,1.5c-0.7,0.3-1.5,0.5-2.4,0.5H100V119.5z M103.6,126.6c0.6,0,1.2-0.1,1.6-0.4c0.5-0.2,0.8-0.6,1.1-1
			c0.3-0.4,0.4-0.9,0.4-1.5c0-0.6-0.1-1.1-0.4-1.5c-0.3-0.4-0.6-0.8-1.1-1c-0.5-0.2-1-0.4-1.6-0.4h-2v5.8H103.6z"/>
		<path class="st0" d="M123,126.6v1.3h-6.3v-8.4h6.2v1.3h-4.6v2.2h4.1v1.3h-4.1v2.3H123z"/>
		<path class="st0" d="M139.3,127.9l0-5.6l-2.8,4.6h-0.7l-2.8-4.6v5.5h-1.5v-8.4h1.3l3.3,5.6l3.3-5.6h1.3l0,8.4H139.3z"/>
		<path class="st0" d="M153.4,125v3h-1.6v-3l-3.3-5.5h1.7l2.5,4.1l2.5-4.1h1.5L153.4,125z"/>
	</g>
</g>
<g>
	<path class="st1" d="M103.7,188.7c-50.9,0-92.2-41.4-92.2-92.2c0-50.9,41.4-92.2,92.2-92.2s92.2,41.4,92.2,92.2
		C195.9,147.3,154.6,188.7,103.7,188.7z M103.7,9.7c-47.9,0-86.8,38.9-86.8,86.8c0,47.9,38.9,86.8,86.8,86.8s86.8-38.9,86.8-86.8
		C190.5,48.6,151.6,9.7,103.7,9.7z"/>
</g>
<g class="st2">
	<path class="st1" d="M96.3,185.1c-50.9,0-92.2-41.4-92.2-92.2S45.4,0.6,96.3,0.6c50.9,0,92.2,41.4,92.2,92.2
		S147.1,185.1,96.3,185.1z M96.3,6.1C48.4,6.1,9.5,45,9.5,92.9s38.9,86.8,86.8,86.8c47.9,0,86.8-38.9,86.8-86.8S144.2,6.1,96.3,6.1z
		"/>
</g>
<g class="st3">
	<path class="st1" d="M99.2,199.4c-50.9,0-92.2-41.4-92.2-92.2s41.4-92.2,92.2-92.2c50.9,0,92.2,41.4,92.2,92.2
		S150,199.4,99.2,199.4z M99.2,20.3c-47.9,0-86.8,38.9-86.8,86.8s38.9,86.8,86.8,86.8c47.9,0,86.8-38.9,86.8-86.8
		S147,20.3,99.2,20.3z"/>
</g>
</svg>
