<?xml version="1.0" encoding="utf-8"?>
<!-- Generator: Adobe Illustrator 22.0.1, SVG Export Plug-In . SVG Version: 6.00 Build 0)  -->
<svg version="1.1" id="Layer_1" xmlns="http://www.w3.org/2000/svg" xmlns:xlink="http://www.w3.org/1999/xlink" x="0px" y="0px" viewBox="0 0 116 21" style="enable-background:new 0 0 685.1 217.5;" xml:space="preserve">
	<style type="text/css">
	.st0{fill:#FFFFFF;}
</style>
	<title>TeachMe_Logo</title>
	<path d="M6.30797 3.42222H0L0.726879 0.0789185C6.46671 0.0789185 11.3209 0.0789185 17.0858 0.0789185L16.359 3.42222H10.051L6.55026 19.5815H2.80726L6.30797 3.42222Z" fill="#374A63"></path>
	<path d="M16.2171 13.9278C16.075 15.6241 17.3116 16.8532 19.7595 16.8532C21.0378 16.8532 22.8174 16.3779 23.7866 15.5749L25.5412 17.7218C23.7365 19.2296 21.1632 19.9507 19.0327 19.9507C14.2035 19.9507 11.9728 17.0253 12.9252 12.6249C13.8275 8.44581 17.3784 5.43848 21.9235 5.43848C26.6106 5.43848 28.9165 8.28192 27.1537 13.936H16.2171V13.9278ZM24.4383 11.109C24.597 9.3226 23.3689 8.43761 21.3804 8.43761C19.5089 8.43761 17.7794 9.3308 16.8771 11.109H24.4383Z" fill="#374A63"></path>
	<path d="M43.1033 5.84816H46.4286L43.4542 19.5819H40.1874L40.4548 17.5743C39.3102 19.1886 36.9541 19.967 35.3833 19.9998C31.2309 20.0244 28.7078 17.5169 29.7521 12.6986C30.7798 7.9623 34.5228 5.47941 38.6083 5.51219C40.4799 5.51219 42.084 6.3726 42.5853 7.74106L43.1033 5.84816ZM33.2111 12.6986C32.6429 15.3208 34.1552 16.8778 36.4528 16.8778C41.9085 16.8778 43.7132 8.5523 38.2574 8.5523C35.9598 8.5523 33.7792 10.0846 33.2111 12.6986Z" fill="#374A63"></path>
	<path d="M59.5122 17.8283C57.5571 19.3853 55.719 19.9998 53.647 19.9998C49.5865 19.9998 46.7208 17.6071 47.7819 12.7314C48.8346 7.8558 52.7363 5.46304 56.7968 5.46304C58.7853 5.46304 60.1973 6.02026 61.4088 7.49524L58.7352 9.74869C58.0668 9.02759 57.1227 8.65884 56.1619 8.65884C53.8308 8.65884 51.7672 10.3305 51.2492 12.7232C50.681 15.3454 52.2016 16.7385 54.3572 16.7385C55.4684 16.7385 56.6381 16.4353 57.6741 15.5995L59.5122 17.8283Z" fill="#374A63"></path>
	<path d="M68.7862 0.0793308L67.1319 7.70828C68.7277 6.11857 70.3653 5.6433 71.9527 5.6433C75.9297 5.6433 77.1161 8.29008 76.2388 12.3299L74.6681 19.5737H71.2008L72.7631 12.3545C73.3062 9.847 72.2034 8.78993 70.3569 8.78993C68.31 8.78993 66.522 10.4862 66.0792 12.5511L64.5586 19.5737H61.0913L65.3189 0.0711365H68.7862V0.0793308Z" fill="#374A63"></path>
	<path fill-rule="evenodd" clip-rule="evenodd" d="M100.624 1.36584L99.3455 18.6395C99.2954 19.3033 98.7356 19.8277 98.0505 19.8277H97.0312C96.6803 19.8277 96.3294 19.6802 96.0871 19.418C95.8364 19.164 95.7195 18.8116 95.7362 18.4675L96.4881 8.06882L91.8595 15.0832C91.6506 15.411 91.2997 15.6158 90.9154 15.665L90.0047 15.7715C89.4115 15.8371 88.8601 15.5011 88.6428 14.9603L85.8606 7.84757L83.563 18.8116C83.4377 19.4016 82.903 19.8277 82.2847 19.8277H81.2988C80.9062 19.8277 80.5469 19.6475 80.2962 19.3525C80.0456 19.0657 79.9453 18.6723 80.0289 18.2954L83.6215 1.20195C83.7301 0.6939 84.1395 0.292377 84.6575 0.202239L85.635 0.0219631C86.2533 -0.0927579 86.8716 0.251405 87.0888 0.833205L90.6981 10.3632L90.79 10.2157C90.79 10.2076 90.7984 10.1912 90.8067 10.1748L97.0228 0.759455C97.2233 0.464458 97.5492 0.251405 97.9168 0.202239L99.1032 0.0219631C99.4959 -0.0435917 99.8969 0.0793236 100.181 0.341543C100.498 0.595568 100.649 0.980703 100.624 1.36584Z" fill="#FF5622"></path>
	<path fill-rule="evenodd" clip-rule="evenodd" d="M115.017 15.1121L114.532 14.6123C114.248 14.3337 113.872 14.178 113.48 14.2189C113.087 14.2435 112.736 14.4402 112.511 14.7598C111.575 16.0954 110.271 16.6609 108.542 16.6609C107.389 16.6609 106.712 16.3741 106.311 16.0217C106.136 15.8578 105.977 15.6366 105.852 15.358C107.539 15.2842 109.068 14.8745 110.288 14.1698C111.917 13.2438 113.062 11.7442 113.062 9.85135C113.062 8.74511 112.711 7.69623 111.825 6.95874C110.973 6.25403 109.845 6 108.642 6C104.532 6 102 9.54816 102 13.7519C102 15.5956 102.501 17.2181 103.679 18.3735C104.849 19.5371 106.512 20.0287 108.408 20.0287C111.048 20.0287 113.538 19.0782 115.159 16.7018C115.493 16.2102 115.443 15.5546 115.017 15.1121ZM108.567 9.3433C109.227 9.3433 109.436 9.46621 109.461 9.4826V9.4908C109.478 9.53177 109.503 9.6301 109.503 9.81857V9.85135C109.503 10.3348 109.21 10.892 108.35 11.3591C107.706 11.6951 106.829 11.9409 105.743 12.0065C106.219 10.1955 107.397 9.3433 108.567 9.3433Z" fill="#FF5622"></path>
</svg>
